<svg width="200" height="200" viewBox="0 0 200 200" fill="none" xmlns="http://www.w3.org/2000/svg">
<g clip-path="url(#clip0_2_54)">
<circle cx="100" cy="100" r="98" fill="#8997B3" fill-opacity="0.9" stroke="white" stroke-width="4"/>
<path d="M76.3822 152.076L50.6877 166.355C49.1799 167.193 37.2608 172.192 36 173.314C59.843 191.866 80.8862 196 102.015 196C122.988 196 151.062 183.693 166 171C164.622 169.815 154.265 167.385 152.608 166.544L125.094 152.53C121.539 150.719 119.293 147.018 119.293 142.969V131.971C120.067 131.073 120.95 129.921 121.896 128.561C125.646 123.164 128.483 117.228 130.449 111.001C133.978 109.892 136.578 106.571 136.578 102.625V90.8852C136.578 88.3028 135.45 85.9953 133.699 84.3797V67.4092C133.699 67.4092 137.12 41 102.015 41C66.9097 41 70.3315 67.4092 70.3315 67.4092V84.3797C68.5767 85.9953 67.4524 88.3028 67.4524 90.8852V102.625C67.4524 105.717 69.0479 108.438 71.4364 110.011C74.3155 122.78 81.8546 131.971 81.8546 131.971V142.697C81.8513 146.604 79.7521 150.202 76.3822 152.076Z" fill="#DDDFE4"/>
</g>
<defs>
<clipPath id="clip0_2_54">
<rect width="200" height="200" fill="white"/>
</clipPath>
</defs>
</svg>
